<svg xmlns="http://www.w3.org/2000/svg" viewBox="0 0 172 172">
	<style>
		.st0{fill:#fa1}.st1{fill:#fff}.st2{fill:#1b1}
	</style>
	<circle cx="65.6" cy="50.9" r="19.2" class="st0"/>
	<path d="M66 32a19 19 0 11-20 19c0-11 9-19 20-19m0-1a20 20 0 100 40 20 20 0 100-40z" class="st1"/>
	<circle cx="45.3" cy="86" r="19.2" class="st0"/>
	<path d="M45 67a19 19 0 110 38 19 19 0 010-38m0-1a20 20 0 100 40c12 0 21-9 21-20s-9-20-21-20z" class="st1"/>
	<circle cx="126.7" cy="86" r="19.2" class="st0"/>
	<path d="M127 67a19 19 0 110 38 19 19 0 010-38m0-1a20 20 0 100 40c11 0 20-9 20-20s-9-20-20-20z" class="st1"/>
	<circle cx="106.4" cy="50.9" r="19.2" class="st0"/>
	<path d="M106 32a19 19 0 11-19 19c0-11 9-19 19-19m0-1a20 20 0 1021 20c0-11-9-20-21-20z" class="st1"/>
	<circle cx="86" cy="86" r="19.2" class="st0"/>
	<path d="M86 67a19 19 0 11-19 19c0-11 8-19 19-19m0-1a20 20 0 100 40c11 0 20-9 20-20s-9-20-20-20z" class="st1"/>
	<circle cx="65.6" cy="121.1" r="19.2" class="st0"/>
	<path d="M66 102a19 19 0 110 38 19 19 0 010-38m0-1a20 20 0 1020 20c0-11-9-20-20-20z" class="st1"/>
	<circle cx="106.4" cy="121.1" r="19.2" class="st0"/>
	<path d="M106 102a19 19 0 110 38 19 19 0 010-38m0-1a20 20 0 100 41c12 0 21-10 21-21s-9-20-21-20z" class="st1"/>
	<path d="M142 49l15-9 3 5-15 9z" class="st2"/>
	<path d="M145 54l-3-5 15-9 3 5-15 9m0 1l16-9v-2l-3-4-1-1-16 9v2l3 5h1z" class="st1"/>
	<path d="M12 127l15-9 3 5-15 9z" class="st2"/>
	<path d="M15 132l-3-5 15-9 3 5-15 9m0 1l16-9v-2l-3-5h-1l-16 9v2l3 5h1z" class="st1"/>
	<path d="M143 121l3-5 15 9-2 5z" class="st2"/>
	<path d="M143 121l3-5 15 9-2 5-16-9m-1 1l16 9h2l2-5v-2l-16-9-1 1-3 5v1z" class="st1"/>
	<path d="M11 47l2-5 16 9-3 5z" class="st2"/>
	<path d="M11 47l2-5 16 9-2 5-16-9m-1 1l16 9 1-1 3-5v-1l-16-9h-1l-3 5v2z" class="st1"/>
	<path d="M83 171v-18h5v18z" class="st2"/>
	<path d="M83 153h5v18h-5v-18m-1 0l-1 18 2 1h5l1-1h1v-18l-2-1h-5l-1 1z" class="st1"/>
	<path d="M84 19V1h5v18z" class="st2"/>
	<path d="M84 1h5v18h-5V1m-1 0l-1 18 2 1h5l1-1h1V1l-2-1h1-6l-1 1z" class="st1"/>
</svg>
